<svg id="Group_17" data-name="Group 17" xmlns="http://www.w3.org/2000/svg" xmlns:xlink="http://www.w3.org/1999/xlink" width="77.441" height="77.441" viewBox="0 0 77.441 77.441">
  <defs>
    <clipPath id="clip-path">
      <rect id="Rectangle_11" data-name="Rectangle 11" width="77.441" height="77.441" fill="none"/>
    </clipPath>
  </defs>
  <g id="Group_16" data-name="Group 16" transform="translate(0 0)" clip-path="url(#clip-path)">
    <path id="Path_33" data-name="Path 33" d="M77.441,38.72A38.72,38.72,0,1,1,38.72,0a38.719,38.719,0,0,1,38.72,38.72" transform="translate(0 -0.001)" fill="#009cdc" opacity="0.1"/>
    <path id="Path_43" data-name="Path 43" d="M0,0H37.234V46.284H0Z" transform="translate(20.33 15.705)" fill="none" stroke="#3cb4e5" stroke-linecap="round" stroke-width="1.839"/>
    <path id="Path_34" data-name="Path 34" d="M20.881,16.865a2.787,2.787,0,1,1-2.787-2.787,2.786,2.786,0,0,1,2.787,2.787" transform="translate(12.199 11.219)" fill="#3cb4e5"/>
    <path id="Path_35" data-name="Path 35" d="M20.881,23.268a2.787,2.787,0,1,1-2.787-2.787,2.786,2.786,0,0,1,2.787,2.787" transform="translate(12.199 16.321)" fill="#3cb4e5"/>
    <path id="Path_36" data-name="Path 36" d="M20.881,29.671a2.787,2.787,0,1,1-2.787-2.787,2.786,2.786,0,0,1,2.787,2.787" transform="translate(12.199 21.424)" fill="#3cb4e5"/>
    <line id="Line_14" data-name="Line 14" x2="12.065" transform="translate(36.395 28.084)" fill="none" stroke="#3cb4e5" stroke-linecap="round" stroke-width="0.655"/>
    <line id="Line_15" data-name="Line 15" x2="12.065" transform="translate(36.395 39.59)" fill="none" stroke="#3cb4e5" stroke-linecap="round" stroke-width="0.655"/>
    <line id="Line_16" data-name="Line 16" x2="12.065" transform="translate(36.395 51.095)" fill="none" stroke="#3cb4e5" stroke-linecap="round" stroke-width="0.655"/>
  </g>
</svg>
