<svg xmlns="http://www.w3.org/2000/svg" xmlns:xlink="http://www.w3.org/1999/xlink" width="77.62" height="77.62" viewBox="0 0 77.62 77.62">
  <defs>
    <clipPath id="clip-path">
      <rect id="Rectangle_8" data-name="Rectangle 8" width="77.62" height="77.62" fill="none"/>
    </clipPath>
  </defs>
  <g id="Group_32" data-name="Group 32" transform="translate(0 0)">
    <g id="Group_12" data-name="Group 12" transform="translate(0 0)" clip-path="url(#clip-path)">
      <path id="Path_26" data-name="Path 26" d="M77.62,38.81A38.81,38.81,0,1,1,38.81,0,38.809,38.809,0,0,1,77.62,38.81" transform="translate(0 -0.001)" fill="#3cb4e5"/>
      <line id="Line_2" data-name="Line 2" x1="10.14" y1="7.334" transform="translate(44.055 18.477)" fill="none" stroke="#fff" stroke-linecap="round" stroke-width="1.839"/>
      <path id="Path_27" data-name="Path 27" d="M29.339,13.66s-6.255,5.4-14.094,6.662l-2.3,25.386,1.118.809L37.454,36.386c-1.259-7.837,1.916-15.47,1.916-15.47Z" transform="translate(10.37 10.942)" fill="none" stroke="#fff" stroke-linecap="round" stroke-width="1.839"/>
      <line id="Line_3" data-name="Line 3" y1="15.241" x2="11.024" transform="translate(23.874 41.814)" fill="none" stroke="#fff" stroke-linecap="round" stroke-width="0.609"/>
      <path id="Path_28" data-name="Path 28" d="M19.185,21.778a2.633,2.633,0,1,1,.591,3.678,2.635,2.635,0,0,1-.591-3.678" transform="translate(14.969 16.572)" fill="#fff"/>
      <line id="Line_4" data-name="Line 4" x2="34.88" transform="translate(22.513 62.529)" fill="none" stroke="#fff" stroke-linecap="round" stroke-width="0.655"/>
    </g>
  </g>
</svg>
