<svg xmlns="http://www.w3.org/2000/svg" xmlns:xlink="http://www.w3.org/1999/xlink" width="77.62" height="77.62" viewBox="0 0 77.62 77.62">
  <defs>
    <clipPath id="clip-path">
      <rect id="Rectangle_9" data-name="Rectangle 9" width="77.62" height="77.62" fill="none"/>
    </clipPath>
  </defs>
  <g id="Group_15" data-name="Group 15" transform="translate(0 0)">
    <g id="Group_14" data-name="Group 14" transform="translate(0 0)" clip-path="url(#clip-path)">
      <path id="Path_29" data-name="Path 29" d="M77.62,38.81A38.81,38.81,0,1,1,38.81,0,38.809,38.809,0,0,1,77.62,38.81" transform="translate(0 -0.001)" fill="#3cb4e5"/>
      <line id="Line_5" data-name="Line 5" y1="6.376" x2="6.511" transform="translate(46.042 25.745)" fill="none" stroke="#fff" stroke-linecap="round" stroke-width="1.839"/>
      <line id="Line_6" data-name="Line 6" x2="4.211" y2="3.119" transform="translate(32.448 29.783)" fill="none" stroke="#fff" stroke-linecap="round" stroke-width="1.839"/>
      <line id="Line_7" data-name="Line 7" y1="6.43" x2="6.723" transform="translate(16.12 30.595)" fill="none" stroke="#fff" stroke-linecap="round" stroke-width="1.839"/>
      <line id="Line_8" data-name="Line 8" y2="16.022" transform="translate(27.401 39.506)" fill="none" stroke="#fff" stroke-linecap="round" stroke-width="1.839"/>
      <line id="Line_9" data-name="Line 9" y2="10.677" transform="translate(34.554 44.852)" fill="none" stroke="#fff" stroke-linecap="round" stroke-width="1.839"/>
      <line id="Line_10" data-name="Line 10" y2="10.677" transform="translate(20.247 44.852)" fill="none" stroke="#fff" stroke-linecap="round" stroke-width="1.839"/>
      <line id="Line_11" data-name="Line 11" y2="12.898" transform="translate(49.482 42.631)" fill="none" stroke="#fff" stroke-linecap="round" stroke-width="1.839"/>
      <line id="Line_12" data-name="Line 12" y2="7.592" transform="translate(41.859 47.936)" fill="none" stroke="#fff" stroke-linecap="round" stroke-width="1.839"/>
      <line id="Line_13" data-name="Line 13" y2="21.71" transform="translate(57.105 33.818)" fill="none" stroke="#fff" stroke-linecap="round" stroke-width="1.839"/>
      <path id="Path_30" data-name="Path 30" d="M13.6,15.779a2.581,2.581,0,1,1,2.581,2.581A2.582,2.582,0,0,1,13.6,15.779" transform="translate(10.892 10.572)" fill="#fff"/>
      <path id="Path_31" data-name="Path 31" d="M30.273,12.987a2.581,2.581,0,1,1,2.581,2.581,2.583,2.583,0,0,1-2.581-2.581" transform="translate(24.251 8.336)" fill="#fff"/>
      <path id="Path_32" data-name="Path 32" d="M21.808,21.595a2.581,2.581,0,1,1,2.581,2.581,2.582,2.582,0,0,1-2.581-2.581" transform="translate(17.47 15.231)" fill="#fff"/>
    </g>
  </g>
</svg>
